<svg id="Layer_1" data-name="Layer 1" xmlns="http://www.w3.org/2000/svg" viewBox="0 0 118.78 135.96"><defs><style>.cls-1{fill:#fff;}.cls-2{fill:#e8e8e8;}.cls-3{fill:#bf6d15;}.cls-4{fill:#513731;}.cls-5{fill:#9e5212;}.cls-6{fill:#f7f7f7;}.cls-7{fill:#01003a;}.cls-8{fill:#03022d;}.cls-9{fill:#43b3ff;}.cls-10{fill:#02013a;}</style></defs><title>default_Avatar</title><rect class="cls-1" width="118.78" height="135.96"/><path class="cls-2" d="M78.82,81.89c10.52,3.9,15.3,12.08,16.89,22.64q-33.93,23.19-67.86,0C29.49,94,34.11,85.7,44.73,81.85,61.11,95.46,62.4,95.46,78.82,81.89Z"/><path class="cls-3" d="M83.84,53.4C83,61.62,78,67.6,72.86,73.47q-11.08,13.22-22.16,0c-5.22-5.83-10.1-11.85-11-20C44,40,55.55,36.8,67.15,35,80.79,32.94,79.92,45.71,83.84,53.4Z"/><path class="cls-4" d="M83.84,53.4c-1.32.13-3.71.59-3.78.34-2-6.38-2.3-15-17.49-14.73-9.89.17-16.32-.43-19.07,14.75a37.38,37.38,0,0,1-3.78-.35c0-4.68-.78-9.58.32-14,2.74-11,14.42-18.79,24.55-17.16C77.36,24.29,84.86,36.43,83.84,53.4Z"/><path class="cls-5" d="M50.7,73.46a22.68,22.68,0,0,0,22.16,0c.25,1.85.49,3.71.74,5.57,2.54,10.68-4.84,13.69-12.5,13.4C54.16,92.19,47.31,88.76,50,79Z"/><path class="cls-6" d="M50,79c1.6,6.21,4.61,11.17,11.82,11.17S72,85.24,73.6,79l5.22,2.85c-1.67,9.57-8.69,13.79-17.06,13.78s-15.38-4.26-17-13.82Z"/><path class="cls-7" d="M93.4,117.52a6.72,6.72,0,0,1-.66.32,2.06,2.06,0,0,1-1.23.06,1.41,1.41,0,0,1-1-1.13,2,2,0,0,1,.12-1,3.05,3.05,0,0,1,1-1.25.14.14,0,0,1,.12,0c.13,0,.25.06.37.09s.12,0,.12.1a4.91,4.91,0,0,0-.28.5,3.63,3.63,0,0,0-.16.65c0,.07,0,.11.11.09a1.41,1.41,0,0,0,1-.63.92.92,0,0,0,.06-.76,1.17,1.17,0,0,1,.62-.35.81.81,0,0,1,.12,1.33,2.57,2.57,0,0,1-.92.54l-.24.08a.84.84,0,0,1-.5.14c-.29,0-.28,0-.2.28a1.09,1.09,0,0,0,1.52.62,4.45,4.45,0,0,0,.94-.57s0,0,.07,0a.23.23,0,0,1,0,.3c-.26.22-.55.44-.85.65h0Z"/><path class="cls-8" d="M90.27,114.13c0,.39-.09.78-.13,1.16,0,.19,0,.19-.23.15a.44.44,0,0,1,0-.23c0-.33.07-.67.11-1S90.1,114,90.27,114.13Z"/><path class="cls-9" d="M89.93,116c-.24,0-.24,0-.16-.24a.61.61,0,0,0,.07-.17c0-.08.07-.1.17-.09s.13.06.13.14a.85.85,0,0,0,0,.23c0,.13,0,.18-.15.14Z"/><path class="cls-9" d="M100.72,113.76c.88-.21,1.74-.46,2.59-.75.08,0,.12,0,.14.07s.13.38.2.57,0,.12-.08.15L103,114c-.19.06-.19.06-.13.24.24.74.48,1.47.74,2.2,0,.13,0,.18-.14.22l-.68.2c-.21.06-.21.06-.26-.12-.23-.74-.45-1.49-.66-2.24,0-.12-.08-.15-.22-.11l-.74.19s0,0,0,0a3,3,0,0,1-.18-.71A.08.08,0,0,1,100.72,113.76Z"/><path class="cls-10" d="M100.72,113.76c.07.26.13.53.2.8h0a5.49,5.49,0,0,1-1.07.22c0-.24-.09-.48-.15-.71,0-.07,0-.1.07-.12C100.09,113.9,100.41,113.83,100.72,113.76Z"/><path class="cls-9" d="M100.92,114.56h-.06l-.13,0-.69.15a.08.08,0,0,0-.06,0l-.13,0,.06.29c.16.73.32,1.47.49,2.2,0,.08,0,.16.16.11h0l.85-.19h0c.16,0,.18-.07.15-.2C101.33,116.19,101.13,115.37,100.92,114.56Z"/><path class="cls-9" d="M99.22,114.09c-.4.08-.8.14-1.2.19a.17.17,0,0,0-.14.1c-.07.2-.14.39-.22.59-.18.46-.37.92-.57,1.37,0,0,0,.07-.07.07s0,0-.07-.06l-.26-.34c-.33-.46-.65-.93-1-1.4a.19.19,0,0,0-.2-.1l-1,0h-.13c-.19,0-.19,0-.19.17,0,.56,0,1.12,0,1.67,0,.07,0,1.2,0,1.48,0,.13.05.19.21.15h0l.82,0c.13,0,.16,0,.15-.13,0-.62-.09-1.24-.13-1.85,0-.08.06,0,.06,0l.3.45c.31.46.63.91,1,1.36a.14.14,0,0,0,.16.07l.74-.07a.13.13,0,0,0,.13-.08l.54-1.4.26-.71a.12.12,0,0,1,0,.08c.11.6.21,1.2.32,1.8,0,.11.05.15.19.12l.81-.14c.13,0,.16-.07.14-.17-.23-1-.45-2.1-.65-3.15C99.35,114.1,99.31,114.07,99.22,114.09Z"/><path class="cls-9" d="M92.43,114.73c-.8-.15-1.58-.34-2.36-.56a.1.1,0,0,1,0-.2c.63-.27,1.25-.55,1.84-.86a.85.85,0,0,1,.42-.08c.88,0,1.76.07,2.63,0a.07.07,0,0,1,0,.13,26.25,26.25,0,0,1-2.28,1.48A.37.37,0,0,1,92.43,114.73Z"/></svg>