<svg xmlns="http://www.w3.org/2000/svg" viewBox="0 0 620.47 335.51"><g id="Calque_2" data-name="Calque 2"><path d="M791.1,508.09a64.12,64.12,0,0,1-7.94-12A96.28,96.28,0,0,0,791.1,508.09Z" transform="translate(-741.16 -338.97)" style="fill:#ff2c2c"/><path d="M783.14,496.09a41.21,41.21,0,0,1-4-9.79.17.17,0,0,1,0-.07A65,65,0,0,0,783.14,496.09Z" transform="translate(-741.16 -338.97)" style="fill:#ff2c2c"/><path d="M907.79,408l-1.71,59.68-.06,1.83v.14a65,65,0,0,1-114.58,38.9l0,0-.12-.15-.19-.24a96.28,96.28,0,0,1-7.94-12l0,0a65,65,0,0,1-4-9.86,53.19,53.19,0,0,1-.33-19.71s18.38-16.34,42.56-15.32c19.74,0,14.63,4.72,31,7.64,4.77.87,25.54,5,39.83-15.81,2.09-3,3.9-5.93,5.47-8.66C906.8,418.4,907.79,408,907.79,408Z" transform="translate(-741.16 -338.97)" style="fill:#ff2c2c"/><path d="M883.9,358.63a16.43,16.43,0,0,1-.9-4.85c-.1-3.46.29-9.33,3.78-12.11,5.1-4.09,7.4-3.06,10.21,0s5.1,14,5.36,26.81,0,35-11.49,55.66C896.22,409,898,394.26,889.71,374,887.78,370.58,884.69,360.89,883.9,358.63Z" transform="translate(-741.16 -338.97)" style="fill:#ff2c2c"/><path d="M820.65,437s-3.58-6.25,0-10.08,6-2.3,7.53-1.28,1.91,5.74,1.53,12.89,1.3,8.27,5.24,12C826.14,445.84,822.82,441.12,820.65,437Z" transform="translate(-741.16 -338.97)" style="fill:#ff2c2c"/><path d="M810,442.87s-2.6-2.43-1.19-4.69,2.87-1.86,3.79-1.58,1.67,2.41,2.31,5.79,1.65,3.67,4.15,4.89C813.91,446.25,811.62,444.49,810,442.87Z" transform="translate(-741.16 -338.97)" style="fill:#ff2c2c"/></g><g id="Calque_3" data-name="Calque 3"><path d="M819.06,374.09s-30.58,31.82-43.18,73.19,4.94,56.35,16,72.35,14.25,19.58,15.66,26c3.24,14.81-5.62,43.57-5.62,43.57s8.69-21.27,9-36.59-5.62-20.6-16.86-35.24S768.5,485.25,780,448.65,819.06,374.09,819.06,374.09Z" transform="translate(-741.16 -338.97)" style="fill:#434343"/><path d="M911.13,400.46s9,43.2-2.35,84.94-34.15,45.09-52,52.76-22.55,11.22-27.18,15.93c-4.39,4.48-11.2,20.93-18.12,45.37-14.47,51.06,10.72,60.42,10.72,60.42s-25.83-4.27-15-56c5.11-24.34,12.46-42.22,15.85-47.89,7.86-13.16,16.23-14.19,33-21.88,14.89-6.82,38.78-12.63,48.53-49.73S911.13,400.46,911.13,400.46Z" transform="translate(-741.16 -338.97)" style="fill:#434343"/><path d="M786.61,670.09s-35.92-6.46-45.45-27.57c14.64,13.45,21.5,19.29,46,24.51,32.68,7,43.74,6.64,52.76,3.58C825.92,679.63,786.61,670.09,786.61,670.09Z" transform="translate(-741.16 -338.97)" style="fill:#434343"/><text transform="translate(186.78 180.4)" style="font-size:72px;fill:#ff2c2c;font-family:SegoeScript, Segoe Script">i tsika</text><text transform="translate(216.68 153.95)" style="font-size:49px;fill:#434343;font-family:SegoeScript, Segoe Script">n</text></g></svg>