<svg id="Calque_1" data-name="Calque 1" xmlns="http://www.w3.org/2000/svg" viewBox="0 0 323.45 259.4"><defs><style>.cls-1{fill:#fff;}.cls-2,.cls-4{fill:#e73837;}.cls-3,.cls-5{fill:#444;}.cls-4,.cls-5{isolation:isolate;font-family:SegoeScript, Segoe Script;}.cls-4{font-size:46.99px;}.cls-5{font-size:31.98px;}</style></defs><path class="cls-1" d="M287.35,342.32h0a16.6,16.6,0,0,0,1.46-12.61l-5.09-17.83a73,73,0,0,1,2.47-47.28l24.25-60.35A39.35,39.35,0,0,1,347,179.56h38.41A33.6,33.6,0,0,1,418,205.12l2.47,10.06a34.55,34.55,0,0,0,31.31,26.21l107.29,7A39.32,39.32,0,0,1,595.56,283l1.13,9.62A39.81,39.81,0,0,1,559.86,337c-52.2,3.56-135.77,10.8-144.06,21-4.93,6.07-13,8.77-20.92,9.84A34.92,34.92,0,0,0,365.66,394l-6,23.94a27.73,27.73,0,0,1-26.9,21h0a85.73,85.73,0,0,1-34.05-7h0c-15.24-6.58-25.49-21.56-25.22-38.16A109.41,109.41,0,0,1,287.35,342.32Z" transform="translate(-273.52 -179.56)"/><g id="Calque_2" data-name="Calque 2"><path class="cls-2" d="M317.62,305.08a42.5,42.5,0,0,1-5.18-7.83A63.52,63.52,0,0,0,317.62,305.08Z" transform="translate(-273.52 -179.56)"/><path class="cls-2" d="M312.43,297.25a26.92,26.92,0,0,1-2.61-6.39,0,0,0,0,1,0-.05A41.75,41.75,0,0,0,312.43,297.25Z" transform="translate(-273.52 -179.56)"/><path class="cls-2" d="M393.79,239.75l-1.12,38.95,0,1.2V280a42.42,42.42,0,0,1-74.78,25.39h0l-.08-.1-.13-.16a62,62,0,0,1-5.18-7.83h0a42.65,42.65,0,0,1-2.61-6.43,34.81,34.81,0,0,1-.22-12.87s12-10.66,27.78-10c12.89,0,9.55,3.08,20.24,5,3.11.57,16.67,3.26,26-10.32,1.37-2,2.55-3.87,3.57-5.65C393.14,246.54,393.79,239.75,393.79,239.75Z" transform="translate(-273.52 -179.56)"/><path class="cls-2" d="M378.19,207.53a10.69,10.69,0,0,1-.58-3.17c-.07-2.26.19-6.09,2.46-7.9,3.33-2.67,4.83-2,6.67,0s3.33,9.14,3.5,17.5,0,22.84-7.5,36.33c3.5-9.89,4.66-19.51-.75-32.73C380.73,215.33,378.71,209,378.19,207.53Z" transform="translate(-273.52 -179.56)"/><path class="cls-2" d="M336.91,258.68s-2.34-4.08,0-6.58,3.92-1.5,4.92-.84,1.24,3.75,1,8.42.85,5.4,3.42,7.83C340.49,264.45,338.33,261.37,336.91,258.68Z" transform="translate(-273.52 -179.56)"/><path class="cls-2" d="M330,262.51s-1.7-1.59-.78-3.06a1.89,1.89,0,0,1,2.48-1c.6.18,1.09,1.57,1.5,3.78s1.08,2.39,2.71,3.19A10.39,10.39,0,0,1,330,262.51Z" transform="translate(-273.52 -179.56)"/></g><g id="Calque_3" data-name="Calque 3"><path class="cls-3" d="M335.87,217.62s-20,20.77-28.18,47.77,3.22,36.78,10.44,47.22,9.3,12.78,10.22,17c2.12,9.67-3.66,28.44-3.66,28.44s5.67-13.88,5.87-23.88-3.67-13.45-11-23-16.69-21-9.18-44.86S335.87,217.62,335.87,217.62Z" transform="translate(-273.52 -179.56)"/><path class="cls-3" d="M396,234.83s5.87,28.2-1.54,55.44-22.29,29.43-33.94,34.44S345.77,332,342.75,335.1c-2.86,2.93-7.31,13.66-11.82,29.62-9.45,33.32,7,39.43,7,39.43s-16.86-2.79-9.79-36.55c3.34-15.89,8.13-27.56,10.35-31.26,5.13-8.59,10.59-9.26,21.54-14.28,9.72-4.45,25.31-8.24,31.67-32.46S396,234.83,396,234.83Z" transform="translate(-273.52 -179.56)"/><path class="cls-3" d="M314.69,410.82s-23.44-4.22-29.66-18c9.55,8.78,14,12.59,30,16,21.33,4.57,28.55,4.33,34.44,2.34C340.35,417,314.69,410.82,314.69,410.82Z" transform="translate(-273.52 -179.56)"/><text class="cls-4" transform="translate(133.43 132.88)">i tsika</text><text class="cls-5" transform="translate(152.94 115.61)">n</text></g></svg>